<?xml version="1.0" encoding="UTF-8"?>
<svg width="22px" height="19px" viewBox="0 0 22 19" version="1.1" xmlns="http://www.w3.org/2000/svg" xmlns:xlink="http://www.w3.org/1999/xlink">
    <!-- Generator: Sketch 50.2 (55047) - http://www.bohemiancoding.com/sketch -->
    <title>bags</title>
    <desc>Created with Sketch.</desc>
    <defs></defs>
    <g id="Icons" stroke="none" stroke-width="1" fill="none" fill-rule="evenodd">
        <g id="Artboard" transform="translate(-88.000000, -299.000000)">
            <g id="bags" transform="translate(83.000000, 292.000000)">
                <rect id="Rectangle-2" fill="#F6F0F0" opacity="0" x="0" y="0" width="32" height="32"></rect>
                <g id="bag" transform="translate(5.000000, 7.000000)" fill="#494949">
                    <path d="M2,4 L20,4 C21.1045695,4 22,4.8954305 22,6 L22,19 L0,19 L0,6 C-1.3527075e-16,4.8954305 0.8954305,4 2,4 Z M2,5 C1.44771525,5 1,5.44771525 1,6 L1,18 L21,18 L21,6 C21,5.44771525 20.5522847,5 20,5 L2,5 Z" id="Combined-Shape"></path>
                    <path d="M8,2 C8,0.8954305 8.8954305,2.02906125e-16 10,0 L13,0 C14.1045695,-2.02906125e-16 15,0.8954305 15,2 L15,4 L14,4 L14,2 C14,1.44771525 13.5522847,1 13,1 L10,1 C9.44771525,1 9,1.44771525 9,2 L9,3 L8,3 L8,2 Z" id="Combined-Shape"></path>
                </g>
            </g>
        </g>
    </g>
</svg>