<svg version="1.1" id="Layer_1" xmlns="http://www.w3.org/2000/svg" xmlns:xlink="http://www.w3.org/1999/xlink" x="0" y="0" width="612" height="792" viewBox="0 0 612 792" enable-background="new 0 0 612 792" xml:space="preserve"><path fill="#BFBFBF" d="M186.151,156.571c0,2.416-1.876,4.375-4.189,4.375h-41.417c-2.313,0-4.189-1.959-4.189-4.375l0,0 c0-2.416,1.876-4.375,4.189-4.375h41.417C184.275,152.196,186.151,154.155,186.151,156.571L186.151,156.571z"/><path fill="#BFBFBF" d="M186.151,178.571c0,2.416-1.876,4.375-4.189,4.375h-41.417c-2.313,0-4.189-1.959-4.189-4.375l0,0 c0-2.416,1.876-4.375,4.189-4.375h41.417C184.275,174.196,186.151,176.155,186.151,178.571L186.151,178.571z"/><path fill="#BFBFBF" d="M186.151,200.571c0,2.416-1.876,4.375-4.189,4.375h-41.417c-2.313,0-4.189-1.959-4.189-4.375l0,0 c0-2.416,1.876-4.375,4.189-4.375h41.417C184.275,196.196,186.151,198.155,186.151,200.571L186.151,200.571z"/><path fill="#BFBFBF" d="M113.552,166.553c0,6.685-5.895,12.103-13.167,12.103l0,0c-7.272,0-13.167-5.418-13.167-12.103v-11.296 c0-6.684,5.895-12.102,13.167-12.102l0,0c7.272,0,13.167,5.418,13.167,12.102V166.553z"/><path fill="#BFBFBF" d="M126.681,196.155c-0.638-4.499-7.022-11.5-10.215-13.25c-3.192-1.75-11.172,6.083-11.81,7.083 c-0.419,0.656-1.863,1.873-2.984,2.167c-0.624,0.164-1.957,0.19-2.573,0c-1.109-0.342-2.566-1.511-2.984-2.167 c-0.638-1-8.618-8.833-11.81-7.083c-3.192,1.75-9.577,8.751-10.215,13.25c-0.08,0.56-0.764,4.745-0.874,6.344 c-0.127,1.867-0.021,5.617,0,7.489c0.025,2.209,1.743,4,3.894,4h11.344c10.534,0,10.534,0,10.534,0h2.796c0,0,0,0,10.534,0 h11.344c2.15,0,3.87-1.791,3.893-4c0.019-1.778,0.114-5.34,0-7.114C127.446,201.183,126.761,196.715,126.681,196.155z"/><path fill="#BFBFBF" d="M188.279,229.822H72.178c-6.439,0-11.678-5.75-11.678-12.817V140.14c0-7.067,5.239-12.817,11.678-12.817 h116.102c6.439,0,11.678,5.75,11.678,12.817v76.865C199.957,224.072,194.718,229.822,188.279,229.822z M72.178,132.322 c-3.682,0-6.678,3.507-6.678,7.817v76.865c0,4.311,2.996,7.817,6.678,7.817h116.102c3.682,0,6.678-3.507,6.678-7.817V140.14 c0-4.311-2.996-7.817-6.678-7.817H72.178z"/><path fill="#BFBFBF" d="M126.466,426.752c-0.328,0-0.657-0.051-0.973-0.151c-10.634-3.407-19.687-9.94-26.909-19.419 c-5.686-7.463-10.237-16.751-13.53-27.607c-5.553-18.31-5.617-34.622-5.617-35.307c0-1.643,1.247-3.017,2.883-3.175 c0.246-0.023,25.015-2.566,42.272-15.099c1.117-0.812,2.63-0.811,3.748,0c17.253,12.533,42.024,15.076,42.272,15.1 c1.633,0.159,2.881,1.533,2.881,3.174c0,0.685-0.064,16.997-5.617,35.307c-3.292,10.855-7.845,20.144-13.53,27.606 c-7.221,9.479-16.275,16.012-26.908,19.419C127.123,426.701,126.794,426.752,126.466,426.752z M85.908,347.065 c0.265,5.353,1.295,17.68,5.295,30.804c6.826,22.396,18.688,36.632,35.263,42.333c16.614-5.715,28.49-19.999,35.307-42.479 c3.973-13.098,4.992-25.332,5.253-30.658c-7.145-1.042-25.652-4.57-40.561-14.601C111.556,342.495,93.053,346.023,85.908,347.065z"/><path fill="#BFBFBF" d="M124.761,391.599c-0.756,0-1.493-0.269-2.073-0.765l-11.533-9.863c-1.338-1.145-1.495-3.158-0.351-4.496 c1.145-1.339,3.158-1.497,4.497-0.352l8.969,7.67l17.777-23.318c1.068-1.4,3.068-1.671,4.47-0.603 c1.401,1.068,1.67,3.069,0.603,4.47l-19.822,26c-0.532,0.698-1.327,1.146-2.199,1.238 C124.986,391.593,124.874,391.599,124.761,391.599z"/></svg>