<svg id="Layer_1" data-name="Layer 1" xmlns="http://www.w3.org/2000/svg" viewBox="0 0 1156.74 332"><defs><style>.cls-1{fill:#3e7b97;}.cls-2{fill:#259390;}.cls-3{fill:#2e687c;}.cls-4{fill:#258080;}.cls-5{fill:#45aeae;}.cls-6{fill:#459898;}.cls-7{fill:#fff;}</style></defs><title>REALCAR_HOMEPAGE2018_FINAL_040219</title><path class="cls-1" d="M978.75,273A106.08,106.08,0,0,1,872.67,166.88h-59a165.13,165.13,0,0,0,330.25,0h-59A106.08,106.08,0,0,1,978.75,273Z"/><path class="cls-2" d="M707.54,60.78A106.08,106.08,0,0,0,601.46,166.86h-59a165.13,165.13,0,1,1,330.25,0h-59A106.08,106.08,0,0,0,707.54,60.78Z"/><path class="cls-3" d="M436.33,273A106.09,106.09,0,0,1,330.25,166.88h-59a165.13,165.13,0,0,0,330.25,0h-59A106.09,106.09,0,0,1,436.33,273Z"/><path class="cls-4" d="M165.13,60.78A106.08,106.08,0,0,0,59,166.86H0a165.13,165.13,0,1,1,330.25,0h-59A106.08,106.08,0,0,0,165.13,60.78Z"/><path class="cls-1" d="M1114.26,209.34l-42.49-42.48h13.06a106.08,106.08,0,1,0-212.16,0h-59a165.13,165.13,0,1,1,330.25,0h12.87Z"/><path class="cls-5" d="M843.05,124.39l-42.48,42.49h13a106.08,106.08,0,0,1-212.16,0h-59a165.13,165.13,0,0,0,330.25,0h12.86Z"/><path class="cls-1" d="M571.84,209.34l-42.48-42.48h13.06a106.09,106.09,0,0,0-212.17,0h-59a165.13,165.13,0,1,1,330.25,0h12.87Z"/><path class="cls-6" d="M300.63,124.39l-42.48,42.49h13.06a106.09,106.09,0,0,1-212.17,0H0a165.13,165.13,0,0,0,330.25,0h12.87Z"/><path class="cls-7" d="M721.56,145.37c0,7.48-5.72,13.54-12.79,13.54S696,152.85,696,145.37s5.73-13.53,12.79-13.53S721.56,137.9,721.56,145.37Z"/><path class="cls-7" d="M730.51,154.63H724.6a17.6,17.6,0,0,1-31.64,0H687c-9.45,0-8.21,20.81-8.21,30.81h59.89C738.72,175.44,740,154.63,730.51,154.63Z"/><path class="cls-7" d="M468.43,139.18a27.53,27.53,0,1,0,0,38.93A27.54,27.54,0,0,0,468.43,139.18ZM435.2,172.41a19.47,19.47,0,1,1,27.53,0A19.47,19.47,0,0,1,435.2,172.41Z"/><path class="cls-7" d="M408.76,199.53l-.69-.68a5.41,5.41,0,0,1,0-7.63l19.16-19.15a5.4,5.4,0,0,1,7.62,0l.69.68a5.39,5.39,0,0,1,0,7.63l-19.16,19.15A5.4,5.4,0,0,1,408.76,199.53Z"/><polygon class="cls-7" points="956.6 158.52 956.6 193.12 972.61 193.12 972.61 168.05 988.17 168.05 988.17 193.12 1004.17 193.12 1004.17 158.52 956.6 158.52"/><polygon class="cls-7" points="980.39 129.32 945.39 159.38 1015.39 159.38 980.39 129.32"/><path class="cls-7" d="M141.89,193.12V130.5h39.69v48.35h3.84V121.77H138.05v81.55h15.37L148,193.12Zm14-67.39h11.64a.68.68,0,0,1,.66.68.67.67,0,0,1-.66.66H155.92a.67.67,0,0,1-.67-.66.69.69,0,0,1,.67-.68Zm32.13,60.57v-.68a2.76,2.76,0,0,0-2.76-2.75H185a2.75,2.75,0,0,0-2.74,2.75v3.11h-1.06v-3.11a2.76,2.76,0,0,0-2.75-2.75h-.31a2.75,2.75,0,0,0-2.74,2.75v3.11h-1.08v-3.11a2.75,2.75,0,0,0-2.75-2.75h-.29a2.76,2.76,0,0,0-2.76,2.75v3.11h-.88v-7.28c8.52-2.2,13.79-12.62,6.41-22.34-10.83-8.38-22.88-.76-22.88,9.61a13.2,13.2,0,0,0,10.63,12.93v17c-2.93-3.14-4.71-6.61-6.61-7.05-2.45-.57-4.52,1.31-2.82,4.59s9.82,17.47,9.83,17.48c1.08,2.6,4.54,6.44,12.73,6.42,13.12,0,13.12-11.7,13.12-11.7v-16.9s0,0,0,0ZM164.88,168h-.31a2.77,2.77,0,0,0-2.78,2.76v3.05a5.69,5.69,0,1,1,5.84-.42v-2.62a2.75,2.75,0,0,0-2.75-2.77Zm-12.36.75c0-9.29,10.76-16.11,20.49-8.66,6.58,8.62,2.07,17.8-5.38,20v-3.57c4.77-2,7.3-8.32,2.76-14-6.9-5.14-14.45-.32-14.45,6.25a8.41,8.41,0,0,0,5.85,8v3.56a11.84,11.84,0,0,1-9.27-11.54Zm0,0"/></svg>