<svg id="Layer_1" data-name="Layer 1" xmlns="http://www.w3.org/2000/svg" viewBox="0 0 52 52"><defs><style>.cls-1{fill:#fff;}</style></defs><title>Untitled-1</title>
    <path class="cls-1" d="M41.26,17.46a1.69,1.69,0,0,0-2.14-.2C36.61,19,24,27.59,22.65,28.94a5,5,0,0,0,7.13,7.13c1.35-1.36,10-14,11.68-16.48A1.68,1.68,0,0,0,41.26,17.46ZM27.4,33.69A1.68,1.68,0,0,1,25,31.32c.53-.52,4.11-3.07,8.51-6.14C30.47,29.59,27.92,33.17,27.4,33.69Zm20.31-1.18a21.42,21.42,0,0,1-3.64,11.93A1.66,1.66,0,0,1,42,45l-3.53-1.68a1.68,1.68,0,0,1,1.45-3l2.16,1a18.11,18.11,0,0,0,.73-16.29,1.68,1.68,0,1,1,3.06-1.38A21.44,21.44,0,0,1,47.71,32.51Zm-33,8.58a1.69,1.69,0,0,1-.77,2.25L10.49,45a1.78,1.78,0,0,1-.74.17,1.71,1.71,0,0,1-1.4-.75A21.5,21.5,0,0,1,35.05,12.9,1.68,1.68,0,1,1,33.67,16a17.91,17.91,0,0,0-5.78-1.52V17a1.68,1.68,0,0,1-3.36,0V14.44a18.17,18.17,0,0,0-13.79,8.61l2.34,1.13a1.68,1.68,0,0,1-.73,3.19,1.55,1.55,0,0,1-.72-.17L9.25,26.07a18.06,18.06,0,0,0,1.13,15.26l2.08-1A1.67,1.67,0,0,1,14.7,41.09Z"/>
</svg>
