<svg id="Layer_1" data-name="Layer 1" xmlns="http://www.w3.org/2000/svg" viewBox="0 0 58 58"><defs><style>.cls-1{fill:#fff;}</style></defs><title>Untitled-1</title><path class="cls-1" d="M16.1,26.19h-8a1.16,1.16,0,0,1,0-2.32h8a1.16,1.16,0,0,1,0,2.32ZM12.71,30.9h4.53a1.16,1.16,0,0,0,0-2.32H12.71a1.16,1.16,0,0,0,0,2.32ZM6.93,29.74a1.15,1.15,0,0,0-1.14-1.16H3.07a1.16,1.16,0,0,0,0,2.32H5.79a1.15,1.15,0,0,0,1.14-1.16Zm15-9.43a1.15,1.15,0,0,0-1.14-1.16H1.91a1.16,1.16,0,0,0,0,2.32H20.76a1.15,1.15,0,0,0,1.14-1.16ZM55.76,34.67v1.07c0,.68,0,1.46,0,2.4a4.29,4.29,0,0,1-3.36,4,7.39,7.39,0,1,1-.07-2.43,1.87,1.87,0,0,0,1.15-1.58c0-1,0-1.73,0-2.42V34.66c0-1.38,0-3.27,0-4.15,0-.28,0-.54,0-.79H25.33c-3.09,0-4.23-2.8-4.6-3.73a1.16,1.16,0,0,1,.62-1.51,1.13,1.13,0,0,1,1.49.63c.65,1.61,1.4,2.29,2.49,2.29H53.05c-.48-1.14-1.5-2.07-3.75-4.1l-1.5-1.36c-.39-.36-.79-.74-1.17-1.11-.57-.55-1.15-1.12-1.77-1.65l-1.52-1.3c-6.07-5.21-7.91-6.78-13.25-6.78h-21A2.22,2.22,0,0,0,6.7,13v2.76a1.14,1.14,0,1,1-2.28,0V13A4.46,4.46,0,0,1,9.11,8.78h21c6.17,0,8.5,2,14.72,7.33l1.51,1.29c.68.58,1.29,1.17,1.88,1.75.39.38.75.73,1.12,1.06.54.5,1,.95,1.49,1.35,3.92,3.54,4.85,4.38,4.95,8.9,0,.91,0,2.74,0,4.21Zm-5.59,6.5v0a5,5,0,1,0-5,5.11,5,5,0,0,0,5-5.11ZM15,40h0a1.16,1.16,0,1,0,1.15,1.16A1.14,1.14,0,0,0,15,40Zm30.17,0h0a1.16,1.16,0,1,0,1.14,1.16A1.15,1.15,0,0,0,45.18,40Zm-9.66,1.16a1.15,1.15,0,0,1-1.14,1.16H22.19A7.26,7.26,0,0,1,7.8,42.15a4.47,4.47,0,0,1-3-2.34,3.76,3.76,0,0,1-.39-1.67V34.71a1.14,1.14,0,1,1,2.28,0v3.43a1.39,1.39,0,0,0,.15.63,2.08,2.08,0,0,0,1,1A7.25,7.25,0,0,1,22.19,40H34.38a1.15,1.15,0,0,1,1.14,1.16ZM20,41.16a5,5,0,1,0-10,0v0a5,5,0,1,0,10,0Zm0,0"/></svg>