<svg id="Layer_1" data-name="Layer 1" xmlns="http://www.w3.org/2000/svg" viewBox="0 0 52 52"><defs><style>.cls-1{fill:#fff;}</style></defs><title>Untitled-1</title><path class="cls-1" d="M35.81,2.56H16.49a3.38,3.38,0,0,0-3.37,3.38V45.19a3.37,3.37,0,0,0,3.37,3.37H35.81a3.38,3.38,0,0,0,3.38-3.37V5.94a3.39,3.39,0,0,0-3.38-3.38ZM14.65,8.69h23V37.83h-23ZM16.49,4.1H35.81a1.84,1.84,0,0,1,1.84,1.84V7.16h-23V5.94A1.84,1.84,0,0,1,16.49,4.1ZM35.81,47H16.49a1.85,1.85,0,0,1-1.84-1.84V39.36h23v5.83A1.84,1.84,0,0,1,35.81,47Zm0,0"/><path class="cls-1" d="M26.15,40.13a3.07,3.07,0,1,0,3.07,3.06,3.07,3.07,0,0,0-3.07-3.06Zm0,4.6a1.54,1.54,0,1,1,1.54-1.54,1.54,1.54,0,0,1-1.54,1.54Zm0,0"/><path class="cls-1" d="M23.09,6.39h3.06a.77.77,0,1,0,0-1.53H23.09a.77.77,0,1,0,0,1.53Zm0,0"/><path class="cls-1" d="M28.45,6.39h.77a.77.77,0,1,0,0-1.53h-.77a.77.77,0,0,0,0,1.53Zm0,0"/><path class="cls-1" d="M46.56,6.06a.79.79,0,0,0-1.09,0,.77.77,0,0,0,0,1.09,7.35,7.35,0,0,1,0,10.39.76.76,0,0,0,0,1.08.76.76,0,0,0,1.09,0,8.9,8.9,0,0,0,0-12.56Zm0,0"/><path class="cls-1" d="M43.33,7.81a.77.77,0,0,0-1.09,0,.76.76,0,0,0,0,1.08,5,5,0,0,1,0,7.11.77.77,0,0,0,0,1.09.76.76,0,0,0,1.09,0,6.57,6.57,0,0,0,0-9.28Zm0,0"/><path class="cls-1" d="M6.83,7.15A.77.77,0,0,0,5.75,6.06a8.9,8.9,0,0,0,0,12.56.76.76,0,0,0,1.08-1.08,7.36,7.36,0,0,1,0-10.39Zm0,0"/><path class="cls-1" d="M10.06,7.6A.76.76,0,0,0,9,7.6a6.57,6.57,0,0,0,0,9.28.77.77,0,0,0,1.08,0,.76.76,0,0,0,0-1.08,5,5,0,0,1,0-7.12.76.76,0,0,0,0-1.08Zm0,0"/></svg>