<svg id="Layer_1" data-name="Layer 1" xmlns="http://www.w3.org/2000/svg" viewBox="0 0 74 74"><defs><style>.cls-1{fill:#fff;}</style></defs><title>qqq</title><path class="cls-1" d="M21.26,53.42V8.33H49.84V43.14h2.77V2H18.5V60.76H29.57l-3.91-7.34ZM31.36,4.9h8.39a.48.48,0,0,1,0,1H31.36a.48.48,0,1,1,0-1ZM54.5,48.51V48a2,2,0,0,0-2-2H52.3a2,2,0,0,0-2,2v2.23h-.76V48a2,2,0,0,0-2-2h-.22a2,2,0,0,0-2,2v2.23h-.77V48a2,2,0,0,0-2-2h-.21a2,2,0,0,0-2,2v2.23H39.8V45c6.13-1.59,9.92-9.09,4.61-16.09-7.79-6-16.47-.55-16.47,6.92a9.5,9.5,0,0,0,7.66,9.31V57.37c-2.12-2.25-3.39-4.75-4.76-5.07-1.77-.41-3.26.94-2,3.3s7.07,12.58,7.08,12.59c.78,1.87,3.27,4.64,9.17,4.63,9.44,0,9.44-8.43,9.44-8.43V48.51ZM37.81,35.31h-.22a2,2,0,0,0-2,2v2.19a4.06,4.06,0,0,1-2.26-3.64,4.1,4.1,0,1,1,6.46,3.34V37.31a2,2,0,0,0-2-2Zm-8.89.54c0-6.69,7.74-11.6,14.75-6.24C48.41,35.82,45.16,42.43,39.8,44V41.42c3.43-1.45,5.26-6,2-10.07-5-3.7-10.41-.23-10.41,4.5A6.06,6.06,0,0,0,35.6,41.6v2.56a8.52,8.52,0,0,1-6.68-8.31Zm0,0"/></svg>