<?xml version="1.0" encoding="utf-8"?>
<!-- Generator: Adobe Illustrator 22.1.0, SVG Export Plug-In . SVG Version: 6.00 Build 0)  -->
<svg version="1.1" id="Layer_1" xmlns="http://www.w3.org/2000/svg" xmlns:xlink="http://www.w3.org/1999/xlink" x="0px" y="0px"
	 viewBox="0 0 175 175" style="enable-background:new 0 0 175 175;" xml:space="preserve">
<style type="text/css">
	.st0{opacity:0.35;}
	.st1{fill:none;stroke:#FFFFFF;stroke-miterlimit:10;}
	.st2{fill:#FFFFFF;}
</style>
<g class="st0">
	<g>
		<path class="st1" d="M163.7,167.6c-27.2-73.8-84.9-135-150-163.3"/>
		<g>
			<g>
				<path class="st2" d="M167,166.1c0.7,1.9-0.2,4.1-2.2,4.9c-1.9,0.7-4.1-0.2-4.9-2.2c-0.7-1.9,0.2-4.1,2.2-4.9
					C164.1,163.2,166.3,164.1,167,166.1z"/>
				<path class="st2" d="M167.5,165.9c-0.8-2.2-3.3-3.3-5.5-2.5s-3.3,3.3-2.5,5.5c0.8,2.2,3.3,3.3,5.5,2.5S168.3,168.1,167.5,165.9
					C166.7,163.7,168.3,168.1,167.5,165.9z M160.5,168.6c-0.6-1.7,0.2-3.6,1.9-4.2c1.7-0.6,3.6,0.2,4.2,1.9c0.6,1.7-0.2,3.6-1.9,4.2
					S161.1,170.3,160.5,168.6C159.8,166.9,161.1,170.3,160.5,168.6z"/>
			</g>
		</g>
		<g>
			<g>
				<ellipse transform="matrix(0.6898 -0.724 0.724 0.6898 1.0485 11.4082)" class="st2" cx="13.8" cy="4.5" rx="3.8" ry="3.8"/>
				<path class="st2" d="M15.6,0.6c2.1,1,3.1,3.5,2.1,5.6c-1,2.1-3.5,3.1-5.6,2.1C10,7.4,9,4.9,9.9,2.7C10.9,0.6,13.4-0.4,15.6,0.6
					C17.7,1.6,13.4-0.4,15.6,0.6z M12.5,7.5c1.6,0.7,3.6,0,4.3-1.6c0.7-1.6,0-3.6-1.6-4.3c-1.6-0.7-3.6,0-4.3,1.6
					C10.1,4.8,10.9,6.7,12.5,7.5C14.1,8.2,10.9,6.7,12.5,7.5z"/>
			</g>
		</g>
	</g>
</g>
</svg>
